<?xml version="1.0" encoding="UTF-8"?>
<svg id="Layer_1" xmlns="http://www.w3.org/2000/svg" viewBox="0 0 397.1 81.18">
  <defs>
    <style>
      .cls-1 {
        fill: #892947;
      }

      .cls-2 {
        font-size: 60.45px;
      }

      .cls-2, .cls-3 {
        fill: #fff;
        font-family: FranklinGothic-HeavyItalic, 'Franklin Gothic Heavy';
        font-style: italic;
        font-weight: 800;
      }

      .cls-4 {
        fill: #103146;
      }

      .cls-3 {
        font-size: 60px;
      }
    </style>
  </defs>
  <g>
    <path class="cls-1" d="M42.97,2.19h342.13c6.62,0,12,5.38,12,12v31.6c0,8.84-7.18,16.02-16.02,16.02H42.97c-6.62,0-12-5.38-12-12V14.19c0-6.62,5.38-12,12-12Z"/>
    <g>
      <text class="cls-3" transform="translate(122.21 50.01)"><tspan x="0" y="0">Autocare </tspan></text>
      <path class="cls-4" d="M21.2,2.67h69.51c3.1,0,5.88,1.31,7.84,3.7l12.15,14.77c2.51,3.05,3.47,7.58,2.63,12.35l-2.16,12.27c-1.56,8.86-8.79,16.05-16.13,16.05H10.78c-7.35,0-12.04-7.19-10.48-16.05l4.77-27.04C6.63,9.85,13.86,2.67,21.2,2.67Z"/>
      <text class="cls-2" transform="translate(11.98 52.04) skewX(-7)"><tspan x="0" y="0">PK</tspan></text>
    </g>
    <g>
      <path class="cls-4" d="M130.31,69.42l-1.56,9.33h-2.63l.83-4.97c.09-.51.2-1.04.33-1.6.11-.45.18-.79.23-1.03-.05.14-.13.36-.24.64-.22.6-.43,1.11-.62,1.53l-2.41,5.43h-1.68l-.64-5.43c-.06-.48-.1-.99-.12-1.53-.02-.32-.04-.57-.05-.75-.13,1.29-.27,2.4-.42,3.34l-.73,4.38h-2.11l1.56-9.33h3.75l.5,4.13c.04.34.08.58.11.72.06-.21.16-.45.28-.72l1.85-4.13h3.78Z"/>
      <path class="cls-4" d="M137.88,75.8h-4.76c-.02.19-.03.33-.03.42,0,.3.1.54.29.71.19.17.44.25.73.25.56,0,.96-.29,1.19-.88l2.32.38c-.3.68-.79,1.22-1.46,1.64-.67.42-1.42.63-2.24.63-1.03,0-1.87-.29-2.51-.88-.64-.58-.96-1.38-.96-2.4,0-1.1.38-2.04,1.13-2.83.76-.79,1.75-1.18,2.97-1.18,1.03,0,1.86.3,2.47.91.61.61.92,1.42.92,2.43,0,.23-.02.49-.08.79ZM135.39,74.48c.02-.14.03-.25.03-.33,0-.25-.08-.46-.23-.64s-.37-.27-.64-.27c-.29,0-.56.11-.79.33-.24.22-.38.53-.44.91h2.06Z"/>
      <path class="cls-4" d="M143.16,76.07l2.08.51c-.37.89-.86,1.51-1.47,1.86-.61.34-1.23.52-1.88.52-.95,0-1.73-.3-2.33-.91s-.91-1.38-.91-2.33c0-1.08.36-2.04,1.07-2.87s1.66-1.25,2.83-1.25c.85,0,1.57.26,2.17.77.59.51.89,1.17.89,1.98l-2.34.27c0-.75-.25-1.12-.76-1.12-.43,0-.74.31-.92.92-.18.61-.27,1.15-.27,1.6,0,.68.26,1.01.77,1.01s.86-.32,1.08-.97Z"/>
      <path class="cls-4" d="M150.02,69.42l-.54,3.26c.51-.69,1.18-1.04,2.03-1.04.49,0,.93.13,1.34.4.41.27.61.74.61,1.41,0,.25-.03.56-.09.94l-.73,4.36h-2.63l.68-4.09c.06-.34.09-.54.09-.6,0-.37-.22-.55-.67-.55-.19,0-.35.05-.48.14-.13.09-.23.2-.3.33s-.13.35-.19.69l-.68,4.08h-2.63l1.56-9.33h2.63Z"/>
      <path class="cls-4" d="M161.15,78.75h-2.7c-.01-.13-.02-.24-.02-.32,0-.23.02-.51.05-.82-.54.87-1.3,1.3-2.27,1.3-.66,0-1.19-.19-1.59-.57-.41-.38-.61-.85-.61-1.42,0-.42.11-.81.33-1.17.22-.35.53-.63.93-.84.4-.21.81-.35,1.23-.41.42-.07,1.24-.16,2.46-.27.06-.17.09-.3.09-.4,0-.38-.26-.57-.79-.57s-.9.26-1.15.77l-2.25-.46c.57-1.28,1.82-1.92,3.76-1.92.98,0,1.75.17,2.31.51.56.34.84.84.84,1.5,0,.3-.16,1.34-.49,3.14-.12.67-.18,1.11-.18,1.33,0,.18.02.38.07.61ZM158.72,75.47c-1.25.1-1.88.5-1.88,1.2,0,.39.2.58.61.58.26,0,.52-.12.78-.35.26-.23.42-.71.5-1.44Z"/>
      <path class="cls-4" d="M163.53,71.85h2.41l-.18,1.12c.19-.46.49-.8.92-1.01.42-.21.87-.32,1.34-.32.59,0,1.06.16,1.43.46s.55.72.55,1.22c0,.2-.02.43-.07.7l-.79,4.72h-2.63l.7-4.15c.05-.26.07-.44.07-.53,0-.39-.21-.58-.61-.58-.55,0-.89.37-1.01,1.11l-.7,4.15h-2.56l1.16-6.9Z"/>
      <path class="cls-4" d="M174.4,71.85l-1.16,6.9h-2.68l1.16-6.9h2.68ZM174.84,69.2l-.34,2.03h-2.68l.34-2.03h2.68Z"/>
      <path class="cls-4" d="M179.38,76.07l2.08.51c-.37.89-.86,1.51-1.47,1.86-.61.34-1.23.52-1.88.52-.95,0-1.73-.3-2.33-.91s-.91-1.38-.91-2.33c0-1.08.36-2.04,1.07-2.87s1.66-1.25,2.83-1.25c.85,0,1.57.26,2.17.77.59.51.89,1.17.89,1.98l-2.34.27c0-.75-.25-1.12-.76-1.12-.43,0-.74.31-.92.92-.18.61-.27,1.15-.27,1.6,0,.68.26,1.01.77,1.01s.86-.32,1.08-.97Z"/>
      <path class="cls-4" d="M189.09,78.75h-2.7c-.01-.13-.02-.24-.02-.32,0-.23.02-.51.05-.82-.54.87-1.3,1.3-2.27,1.3-.66,0-1.19-.19-1.59-.57-.41-.38-.61-.85-.61-1.42,0-.42.11-.81.33-1.17.22-.35.53-.63.93-.84.4-.21.81-.35,1.23-.41.42-.07,1.24-.16,2.46-.27.06-.17.09-.3.09-.4,0-.38-.26-.57-.79-.57s-.9.26-1.15.77l-2.25-.46c.57-1.28,1.82-1.92,3.76-1.92.98,0,1.75.17,2.31.51.56.34.84.84.84,1.5,0,.3-.16,1.34-.49,3.14-.12.67-.18,1.11-.18,1.33,0,.18.02.38.07.61ZM186.66,75.47c-1.25.1-1.88.5-1.88,1.2,0,.39.2.58.61.58.26,0,.52-.12.78-.35.26-.23.42-.71.5-1.44Z"/>
      <path class="cls-4" d="M194.5,69.42l-1.56,9.33h-2.63l1.56-9.33h2.63Z"/>
      <path class="cls-4" d="M205.21,76.6l-.36,2.15h-6.88l1.56-9.33h6.71l-.34,2.04h-4l-.24,1.46h3.36l-.34,2.02h-3.36l-.27,1.65h4.17Z"/>
      <path class="cls-4" d="M210.08,69.42l-1.56,9.33h-2.63l1.56-9.33h2.63Z"/>
      <path class="cls-4" d="M217.56,75.8h-4.76c-.02.19-.03.33-.03.42,0,.3.1.54.29.71.19.17.44.25.73.25.56,0,.96-.29,1.19-.88l2.32.38c-.3.68-.79,1.22-1.46,1.64-.67.42-1.42.63-2.24.63-1.03,0-1.87-.29-2.5-.88-.64-.58-.96-1.38-.96-2.4,0-1.1.38-2.04,1.13-2.83.76-.79,1.75-1.18,2.97-1.18,1.04,0,1.86.3,2.47.91.61.61.92,1.42.92,2.43,0,.23-.02.49-.08.79ZM215.07,74.48c.02-.14.03-.25.03-.33,0-.25-.08-.46-.23-.64-.15-.18-.37-.27-.64-.27-.29,0-.56.11-.79.33-.24.22-.38.53-.44.91h2.06Z"/>
      <path class="cls-4" d="M222.84,76.07l2.08.51c-.37.89-.86,1.51-1.47,1.86-.61.34-1.23.52-1.88.52-.95,0-1.73-.3-2.33-.91-.6-.6-.91-1.38-.91-2.33,0-1.08.36-2.04,1.07-2.87.71-.83,1.66-1.25,2.83-1.25.85,0,1.58.26,2.17.77.59.51.89,1.17.89,1.98l-2.34.27c0-.75-.25-1.12-.76-1.12-.43,0-.74.31-.92.92-.18.61-.27,1.15-.27,1.6,0,.68.26,1.01.77,1.01s.86-.32,1.08-.97Z"/>
      <path class="cls-4" d="M230.64,71.85l-.3,1.76h-1.25l-.41,2.46c-.04.24-.06.39-.06.46,0,.34.21.51.64.51.19,0,.4-.03.65-.08l-.3,1.8c-.49.1-.96.16-1.42.16-.56,0-.98-.07-1.25-.21-.27-.14-.49-.34-.66-.6s-.26-.6-.26-1.03c0-.18.04-.51.12-1l.41-2.46h-.95l.29-1.76h.95l.38-2.04,2.51-.05-.35,2.09h1.25Z"/>
      <path class="cls-4" d="M231.67,71.85h2.3l-.28,1.67c.48-1.25,1.21-1.87,2.2-1.87.08,0,.18.01.32.03l-.31,2.46c-.24-.01-.39-.02-.47-.02-.57,0-.99.13-1.25.4s-.46.74-.57,1.42l-.47,2.82h-2.63l1.16-6.9Z"/>
      <path class="cls-4" d="M239.83,71.85l-1.16,6.9h-2.68l1.16-6.9h2.68ZM240.27,69.2l-.34,2.03h-2.68l.34-2.03h2.68Z"/>
      <path class="cls-4" d="M244.81,76.07l2.08.51c-.37.89-.86,1.51-1.47,1.86-.61.34-1.23.52-1.88.52-.95,0-1.73-.3-2.33-.91-.6-.6-.91-1.38-.91-2.33,0-1.08.36-2.04,1.07-2.87.71-.83,1.66-1.25,2.83-1.25.85,0,1.58.26,2.17.77.59.51.89,1.17.89,1.98l-2.34.27c0-.75-.25-1.12-.76-1.12-.43,0-.74.31-.92.92-.18.61-.27,1.15-.27,1.6,0,.68.26,1.01.77,1.01s.86-.32,1.08-.97Z"/>
      <path class="cls-4" d="M254.51,78.75h-2.7c-.01-.13-.02-.24-.02-.32,0-.23.02-.51.05-.82-.54.87-1.3,1.3-2.27,1.3-.66,0-1.19-.19-1.59-.57s-.61-.85-.61-1.42c0-.42.11-.81.33-1.17.22-.35.53-.63.93-.84.4-.21.81-.35,1.23-.41.42-.07,1.24-.16,2.46-.27.06-.17.09-.3.09-.4,0-.38-.26-.57-.79-.57s-.9.26-1.15.77l-2.25-.46c.57-1.28,1.82-1.92,3.76-1.92.98,0,1.75.17,2.31.51.56.34.84.84.84,1.5,0,.3-.16,1.34-.49,3.14-.12.67-.18,1.11-.18,1.33,0,.18.02.38.07.61ZM252.08,75.47c-1.25.1-1.88.5-1.88,1.2,0,.39.2.58.61.58.26,0,.52-.12.78-.35s.42-.71.5-1.44Z"/>
      <path class="cls-4" d="M259.93,69.42l-1.56,9.33h-2.63l1.56-9.33h2.63Z"/>
      <path class="cls-4" d="M272.68,76.95l-.32,1.9c-.33.09-.63.13-.89.13-.74,0-1.4-.28-1.97-.83-.68.57-1.53.85-2.54.85s-1.89-.26-2.56-.79c-.67-.52-1.01-1.21-1.01-2.07,0-.53.15-1.05.46-1.55s1.02-.96,2.13-1.38c-.41-.63-.61-1.18-.61-1.66,0-.71.26-1.29.77-1.74.52-.44,1.2-.67,2.06-.67s1.54.21,2.06.64c.53.43.79.96.79,1.6,0,1.04-.65,1.86-1.96,2.45l.91,1.27c.24-.25.49-.63.75-1.15.14-.27.24-.46.3-.57l2.15.44c-.11.33-.37.8-.77,1.42-.4.62-.8,1.08-1.2,1.37.19.23.46.34.83.34.11,0,.31,0,.62-.03ZM267.02,74.76c-.55.21-.83.58-.83,1.11,0,.33.1.59.31.8.21.2.49.3.85.3s.69-.11.98-.34l-1.32-1.87ZM268.1,72.45c.6-.2.9-.52.9-.97,0-.18-.06-.34-.18-.47s-.28-.2-.47-.2-.34.05-.47.16-.2.27-.2.49c0,.32.14.65.42.98Z"/>
      <path class="cls-4" d="M281.96,76.84h-2.5l-.87,1.91h-2.31l4.32-9.33h2.93l1.45,9.33h-2.75l-.26-1.91ZM281.79,74.91l-.37-2.7-1.23,2.7h1.6Z"/>
      <path class="cls-4" d="M289.53,71.85l-1.16,6.9h-2.68l1.16-6.9h2.68ZM289.97,69.2l-.34,2.03h-2.68l.34-2.03h2.68Z"/>
      <path class="cls-4" d="M290.96,71.85h2.3l-.28,1.67c.48-1.25,1.21-1.87,2.2-1.87.08,0,.18.01.32.03l-.31,2.46c-.24-.01-.39-.02-.47-.02-.57,0-.99.13-1.25.4s-.46.74-.57,1.42l-.47,2.82h-2.63l1.16-6.9Z"/>
      <path class="cls-4" d="M304.74,75.14l2.5.32c-.29,1.02-.79,1.86-1.5,2.51-.71.65-1.6.98-2.68.98-1.17,0-2.1-.4-2.79-1.19-.69-.8-1.04-1.82-1.04-3.07,0-1.44.43-2.71,1.28-3.82.85-1.11,2.02-1.67,3.51-1.67,1.08,0,1.96.33,2.64,1,.67.67,1.01,1.54,1.03,2.64l-2.63.19c0-.57-.1-1-.27-1.29-.17-.28-.45-.42-.85-.42-.69,0-1.17.51-1.42,1.54s-.38,1.83-.38,2.42c0,.96.37,1.44,1.12,1.44.37,0,.67-.12.9-.37.23-.25.42-.65.59-1.2Z"/>
      <path class="cls-4" d="M311.25,78.95c-.96,0-1.77-.29-2.42-.86-.65-.57-.98-1.35-.98-2.34,0-1.19.38-2.17,1.14-2.93s1.72-1.15,2.87-1.15c1.06,0,1.9.3,2.52.9.62.6.93,1.34.93,2.22,0,1.31-.4,2.33-1.2,3.06s-1.75,1.1-2.86,1.1ZM311.36,77.27c.48,0,.8-.36.97-1.07s.26-1.31.26-1.78c0-.73-.26-1.09-.79-1.09-.47,0-.79.36-.97,1.09-.18.73-.27,1.32-.27,1.78,0,.72.27,1.07.81,1.07Z"/>
      <path class="cls-4" d="M316.95,71.85h2.41l-.18,1.12c.19-.46.49-.8.92-1.01.42-.21.87-.32,1.34-.32.59,0,1.06.16,1.43.46s.55.72.55,1.22c0,.2-.02.43-.07.7l-.79,4.72h-2.63l.7-4.15c.05-.26.07-.44.07-.53,0-.39-.21-.58-.61-.58-.55,0-.89.37-1.01,1.11l-.7,4.15h-2.56l1.16-6.9Z"/>
      <path class="cls-4" d="M332.33,69.42l-1.56,9.33h-2.45l.17-1.04c-.56.83-1.25,1.25-2.05,1.25-.62,0-1.16-.25-1.61-.74s-.68-1.2-.68-2.11c0-1.13.31-2.16.94-3.08.62-.92,1.42-1.37,2.4-1.37.83,0,1.4.33,1.69.99l.54-3.22h2.62ZM328.89,74.3c.01-.07.02-.15.02-.23,0-.2-.07-.36-.21-.5s-.31-.21-.5-.21c-.47,0-.81.36-1.01,1.08-.21.72-.31,1.32-.31,1.8,0,.63.24.94.73.94s.81-.31.97-.94l.31-1.95Z"/>
      <path class="cls-4" d="M336.04,71.85l-1.16,6.9h-2.68l1.16-6.9h2.68ZM336.49,69.2l-.34,2.03h-2.68l.34-2.03h2.68Z"/>
      <path class="cls-4" d="M341.49,71.85l-.3,1.76h-1.25l-.41,2.46c-.04.24-.06.39-.06.46,0,.34.21.51.64.51.19,0,.4-.03.65-.08l-.3,1.8c-.49.1-.96.16-1.42.16-.56,0-.98-.07-1.25-.21-.27-.14-.49-.34-.66-.6s-.26-.6-.26-1.03c0-.18.04-.51.12-1l.41-2.46h-.95l.29-1.76h.95l.38-2.04,2.51-.05-.35,2.09h1.25Z"/>
      <path class="cls-4" d="M345.21,71.85l-1.16,6.9h-2.68l1.16-6.9h2.68ZM345.65,69.2l-.34,2.03h-2.68l.34-2.03h2.68Z"/>
      <path class="cls-4" d="M349.1,78.95c-.96,0-1.77-.29-2.42-.86-.65-.57-.98-1.35-.98-2.34,0-1.19.38-2.17,1.14-2.93s1.72-1.15,2.87-1.15c1.06,0,1.9.3,2.52.9.62.6.93,1.34.93,2.22,0,1.31-.4,2.33-1.2,3.06s-1.75,1.1-2.86,1.1ZM349.21,77.27c.48,0,.8-.36.97-1.07s.26-1.31.26-1.78c0-.73-.26-1.09-.79-1.09-.47,0-.79.36-.97,1.09-.18.73-.27,1.32-.27,1.78,0,.72.27,1.07.81,1.07Z"/>
      <path class="cls-4" d="M354.79,71.85h2.41l-.18,1.12c.19-.46.49-.8.92-1.01.42-.21.87-.32,1.34-.32.59,0,1.06.16,1.43.46s.55.72.55,1.22c0,.2-.02.43-.07.7l-.79,4.72h-2.63l.7-4.15c.05-.26.07-.44.07-.53,0-.39-.21-.58-.61-.58-.55,0-.89.37-1.01,1.11l-.7,4.15h-2.56l1.16-6.9Z"/>
      <path class="cls-4" d="M365.66,71.85l-1.16,6.9h-2.68l1.16-6.9h2.68ZM366.1,69.2l-.34,2.03h-2.68l.34-2.03h2.68Z"/>
      <path class="cls-4" d="M367.09,71.85h2.41l-.18,1.12c.19-.46.49-.8.92-1.01.42-.21.87-.32,1.34-.32.59,0,1.06.16,1.43.46s.55.72.55,1.22c0,.2-.02.43-.07.7l-.79,4.72h-2.63l.7-4.15c.05-.26.07-.44.07-.53,0-.39-.21-.58-.61-.58-.55,0-.89.37-1.01,1.11l-.7,4.15h-2.56l1.16-6.9Z"/>
      <path class="cls-4" d="M382.03,69.88l-.16,1.72c-.27-.03-.48-.05-.62-.05-.51,0-.85.18-1.03.55.71.42,1.06.97,1.06,1.65,0,.59-.23,1.11-.69,1.57s-1.3.68-2.53.68c-.26,0-.47,0-.64-.03-.25-.03-.42-.04-.52-.04-.17,0-.3.05-.41.15-.11.1-.16.21-.16.34,0,.11.04.2.11.26.07.07.16.11.25.12s.51.03,1.23.05c.79.03,1.31.06,1.54.09.23.03.49.12.78.27.28.15.5.36.67.63.16.27.24.58.24.91,0,.65-.29,1.21-.86,1.7-.57.48-1.66.73-3.26.73-2.42,0-3.63-.56-3.63-1.67,0-.58.41-1.02,1.23-1.33-.44-.3-.67-.66-.67-1.1,0-.77.56-1.31,1.68-1.63-.64-.36-.96-.87-.96-1.54,0-.61.26-1.13.79-1.57.53-.44,1.42-.66,2.67-.66.38,0,.74.03,1.07.1.2-1.29.9-1.93,2.12-1.93.18,0,.42.01.7.04ZM375.95,78.75c-.26.16-.39.31-.39.48,0,.35.57.52,1.71.52.56,0,.96-.04,1.22-.11.25-.07.38-.21.38-.41,0-.14-.06-.23-.18-.27-.12-.04-.38-.07-.77-.09-1.15-.05-1.8-.09-1.96-.12ZM377.94,74.76c.29,0,.52-.1.68-.31.17-.21.25-.44.25-.7,0-.51-.25-.76-.75-.76-.31,0-.54.1-.7.31s-.24.46-.24.75c0,.22.07.4.22.52.15.12.33.18.54.18Z"/>
    </g>
  </g>
  <polygon class="cls-1" points="103.18 41.15 113.67 24.21 106.43 25.59 120.23 5.42 115.25 6.6 103.12 27.48 107.43 26.68 109.65 26.27 108.58 28.11 100.02 42.82 105.51 41.8 107.72 41.39 106.65 43.23 99.37 55.75 111.63 39.94 103.18 41.15"/>
</svg>