<?xml version="1.0" encoding="UTF-8"?>
<svg id="Layer_1" xmlns="http://www.w3.org/2000/svg" viewBox="0 0 390.2 79.68">
  <defs>
    <style>
      .cls-1 {
        fill: #892947;
        font-size: 60px;
      }

      .cls-1, .cls-2 {
        font-family: FranklinGothic-HeavyItalic, 'Franklin Gothic Heavy';
        font-style: italic;
        font-weight: 800;
      }

      .cls-2 {
        fill: #fff;
        font-size: 60.45px;
      }

      .cls-3 {
        fill: #103146;
      }
    </style>
  </defs>
  <text class="cls-1" transform="translate(120.23 50.01)"><tspan x="0" y="0">Autocare </tspan></text>
  <path class="cls-3" d="M21.2,10.47h69.51c3.1,0,5.88,1.31,7.84,3.7l12.15,14.77c2.51,3.05,3.47,7.58,2.63,12.35l-2.16,12.27c-1.56,8.86-8.79,16.05-16.13,16.05H10.78c-7.35,0-12.04-7.19-10.48-16.05l4.77-27.04c1.56-8.86,8.79-16.05,16.13-16.05Z"/>
  <text class="cls-2" transform="translate(11.98 59.85) skewX(-7)"><tspan x="0" y="0">PK</tspan></text>
  <g>
    <path class="cls-3" d="M128.45,61.05l-1.45,8.66h-2.44l.77-4.62c.08-.47.18-.97.31-1.48.1-.42.17-.74.21-.96-.05.13-.12.33-.22.6-.21.55-.4,1.03-.57,1.42l-2.24,5.04h-1.56l-.59-5.04c-.06-.44-.09-.92-.11-1.42-.02-.3-.03-.53-.05-.7-.12,1.2-.25,2.23-.39,3.1l-.68,4.06h-1.96l1.44-8.66h3.49l.46,3.83c.04.31.07.54.1.67.06-.19.15-.42.26-.67l1.72-3.83h3.51Z"/>
    <path class="cls-3" d="M135.61,66.98h-4.42c-.02.17-.03.3-.03.39,0,.28.09.5.27.66.18.16.41.24.68.24.52,0,.89-.27,1.1-.81l2.16.35c-.28.63-.73,1.14-1.35,1.53-.62.39-1.32.58-2.08.58-.96,0-1.73-.27-2.33-.82-.59-.54-.89-1.29-.89-2.22,0-1.02.35-1.9,1.05-2.62.7-.73,1.62-1.1,2.75-1.1.96,0,1.73.28,2.29.85.57.57.85,1.32.85,2.26,0,.21-.02.45-.07.73ZM133.3,65.75c.02-.13.03-.23.03-.3,0-.23-.07-.43-.21-.6-.14-.17-.34-.25-.59-.25-.27,0-.52.1-.74.31s-.36.49-.41.85h1.92Z"/>
    <path class="cls-3" d="M140.64,67.23l1.94.48c-.35.83-.8,1.4-1.36,1.72s-1.14.48-1.75.48c-.88,0-1.61-.28-2.17-.84-.56-.56-.84-1.28-.84-2.16,0-1,.33-1.89.99-2.66.66-.77,1.54-1.16,2.63-1.16.79,0,1.46.24,2.01.71.55.48.83,1.09.83,1.84l-2.18.25c0-.69-.23-1.04-.7-1.04-.4,0-.69.28-.86.85s-.25,1.06-.25,1.49c0,.63.24.94.71.94s.8-.3,1-.9Z"/>
    <path class="cls-3" d="M147.14,61.05l-.51,3.03c.47-.64,1.1-.97,1.88-.97.45,0,.87.12,1.24.38.38.25.56.69.56,1.31,0,.23-.03.52-.08.87l-.68,4.05h-2.44l.63-3.79c.06-.32.08-.5.08-.56,0-.34-.21-.52-.62-.52-.18,0-.33.04-.45.13-.12.09-.21.19-.28.3-.06.11-.12.33-.17.64l-.63,3.79h-2.44l1.45-8.66h2.44Z"/>
    <path class="cls-3" d="M157.61,69.72h-2.51c-.01-.12-.02-.22-.02-.3,0-.22.02-.47.05-.76-.5.81-1.21,1.21-2.11,1.21-.61,0-1.1-.18-1.48-.53s-.56-.79-.56-1.32c0-.39.1-.75.3-1.08.2-.33.49-.59.86-.78.37-.19.75-.32,1.14-.38.39-.06,1.15-.15,2.28-.25.05-.16.08-.28.08-.37,0-.35-.25-.53-.74-.53s-.84.24-1.07.72l-2.09-.42c.53-1.19,1.69-1.78,3.49-1.78.91,0,1.62.16,2.15.47s.78.78.78,1.39c0,.28-.15,1.25-.46,2.92-.11.62-.17,1.04-.17,1.24,0,.16.02.35.06.56ZM155.35,66.67c-1.17.09-1.75.46-1.75,1.12,0,.36.19.54.56.54.24,0,.48-.11.72-.32.24-.22.39-.66.46-1.33Z"/>
    <path class="cls-3" d="M159.95,63.31h2.23l-.17,1.04c.17-.43.46-.74.85-.94.39-.2.81-.29,1.24-.29.55,0,.99.14,1.33.43s.51.67.51,1.14c0,.18-.02.4-.06.65l-.73,4.38h-2.44l.65-3.85c.04-.25.06-.41.06-.49,0-.36-.19-.54-.57-.54-.51,0-.82.34-.94,1.03l-.65,3.85h-2.38l1.07-6.41Z"/>
    <path class="cls-3" d="M170.17,63.31l-1.07,6.41h-2.49l1.07-6.41h2.49ZM170.58,60.85l-.32,1.88h-2.49l.32-1.88h2.49Z"/>
    <path class="cls-3" d="M174.92,67.23l1.94.48c-.35.83-.8,1.4-1.36,1.72s-1.14.48-1.75.48c-.88,0-1.61-.28-2.17-.84-.56-.56-.84-1.28-.84-2.16,0-1,.33-1.89.99-2.66.66-.77,1.54-1.16,2.63-1.16.79,0,1.46.24,2.01.71.55.48.83,1.09.83,1.84l-2.18.25c0-.69-.23-1.04-.7-1.04-.4,0-.69.28-.86.85s-.25,1.06-.25,1.49c0,.63.24.94.71.94s.8-.3,1-.9Z"/>
    <path class="cls-3" d="M184.07,69.72h-2.51c-.01-.12-.02-.22-.02-.3,0-.22.02-.47.05-.76-.5.81-1.21,1.21-2.11,1.21-.61,0-1.1-.18-1.48-.53s-.56-.79-.56-1.32c0-.39.1-.75.3-1.08.2-.33.49-.59.86-.78.37-.19.75-.32,1.14-.38.39-.06,1.15-.15,2.28-.25.05-.16.08-.28.08-.37,0-.35-.25-.53-.74-.53s-.84.24-1.07.72l-2.09-.42c.53-1.19,1.69-1.78,3.49-1.78.91,0,1.62.16,2.15.47s.78.78.78,1.39c0,.28-.15,1.25-.46,2.92-.11.62-.17,1.04-.17,1.24,0,.16.02.35.06.56ZM181.81,66.67c-1.17.09-1.75.46-1.75,1.12,0,.36.19.54.56.54.24,0,.48-.11.72-.32.24-.22.39-.66.46-1.33Z"/>
    <path class="cls-3" d="M189.23,61.05l-1.45,8.66h-2.44l1.45-8.66h2.44Z"/>
    <path class="cls-3" d="M191.94,67.42l-.35,2.09-1.73,2.44h-1.02l1.39-2.23h-1.06l.38-2.3h2.39Z"/>
    <path class="cls-3" d="M203.14,67.72l-.34,1.99h-6.39l1.45-8.66h6.23l-.32,1.9h-3.72l-.23,1.36h3.12l-.32,1.88h-3.12l-.25,1.54h3.87Z"/>
    <path class="cls-3" d="M207.79,61.05l-1.45,8.66h-2.44l1.45-8.66h2.44Z"/>
    <path class="cls-3" d="M214.86,66.98h-4.42c-.02.17-.03.3-.03.39,0,.28.09.5.27.66s.41.24.68.24c.52,0,.89-.27,1.1-.81l2.16.35c-.28.63-.73,1.14-1.36,1.53-.62.39-1.32.58-2.08.58-.96,0-1.73-.27-2.33-.82-.59-.54-.89-1.29-.89-2.22,0-1.02.35-1.9,1.05-2.62.7-.73,1.62-1.1,2.75-1.1.96,0,1.73.28,2.29.85.57.57.85,1.32.85,2.26,0,.21-.02.45-.07.73ZM212.55,65.75c.02-.13.03-.23.03-.3,0-.23-.07-.43-.21-.6-.14-.17-.34-.25-.59-.25-.27,0-.52.1-.74.31-.22.21-.36.49-.41.85h1.92Z"/>
    <path class="cls-3" d="M219.89,67.23l1.94.48c-.35.83-.8,1.4-1.36,1.72-.56.32-1.14.48-1.75.48-.88,0-1.61-.28-2.17-.84-.56-.56-.84-1.28-.84-2.16,0-1,.33-1.89.99-2.66.66-.77,1.54-1.16,2.63-1.16.79,0,1.46.24,2.01.71.55.48.83,1.09.83,1.84l-2.18.25c0-.69-.24-1.04-.71-1.04-.4,0-.69.28-.86.85-.17.57-.25,1.06-.25,1.49,0,.63.24.94.71.94s.8-.3,1-.9Z"/>
    <path class="cls-3" d="M227.26,63.31l-.28,1.64h-1.16l-.38,2.29c-.04.22-.06.37-.06.42,0,.31.2.47.6.47.17,0,.38-.03.6-.08l-.28,1.67c-.46.1-.9.15-1.31.15-.52,0-.91-.07-1.16-.2s-.46-.32-.62-.56c-.16-.24-.24-.56-.24-.95,0-.17.04-.47.11-.93l.38-2.29h-.88l.27-1.64h.88l.35-1.9,2.33-.04-.33,1.94h1.16Z"/>
    <path class="cls-3" d="M228.35,63.31h2.14l-.26,1.55c.44-1.16,1.12-1.74,2.04-1.74.07,0,.17.01.3.03l-.29,2.29c-.22-.01-.37-.02-.44-.02-.53,0-.92.12-1.17.37-.25.25-.42.69-.53,1.32l-.44,2.62h-2.44l1.07-6.41Z"/>
    <path class="cls-3" d="M236.06,63.31l-1.07,6.41h-2.49l1.07-6.41h2.49ZM236.47,60.85l-.32,1.88h-2.49l.32-1.88h2.49Z"/>
    <path class="cls-3" d="M240.81,67.23l1.94.48c-.35.83-.8,1.4-1.37,1.72-.56.32-1.14.48-1.75.48-.88,0-1.61-.28-2.17-.84s-.84-1.28-.84-2.16c0-1,.33-1.89.99-2.66.66-.77,1.54-1.16,2.63-1.16.79,0,1.46.24,2.01.71.55.48.83,1.09.83,1.84l-2.18.25c0-.69-.23-1.04-.7-1.04-.4,0-.69.28-.86.85-.17.57-.25,1.06-.25,1.49,0,.63.24.94.71.94s.8-.3,1-.9Z"/>
    <path class="cls-3" d="M249.95,69.72h-2.51c-.01-.12-.02-.22-.02-.3,0-.22.02-.47.05-.76-.5.81-1.21,1.21-2.11,1.21-.61,0-1.1-.18-1.48-.53-.38-.35-.56-.79-.56-1.32,0-.39.1-.75.3-1.08.2-.33.49-.59.86-.78s.75-.32,1.14-.38,1.15-.15,2.28-.25c.05-.16.08-.28.08-.37,0-.35-.25-.53-.74-.53s-.84.24-1.07.72l-2.09-.42c.53-1.19,1.69-1.78,3.49-1.78.91,0,1.62.16,2.15.47s.78.78.78,1.39c0,.28-.15,1.25-.46,2.92-.11.62-.17,1.04-.17,1.24,0,.16.02.35.06.56ZM247.7,66.67c-1.17.09-1.75.46-1.75,1.12,0,.36.19.54.56.54.24,0,.48-.11.72-.32s.39-.66.46-1.33Z"/>
    <path class="cls-3" d="M255.11,61.05l-1.45,8.66h-2.44l1.45-8.66h2.44Z"/>
    <path class="cls-3" d="M257.83,67.42l-.35,2.09-1.73,2.44h-1.02l1.39-2.23h-1.06l.38-2.3h2.39Z"/>
    <path class="cls-3" d="M270.91,68.05l-.3,1.77c-.3.08-.58.12-.83.12-.68,0-1.3-.26-1.83-.77-.63.53-1.42.79-2.36.79s-1.76-.24-2.38-.73c-.62-.49-.93-1.13-.93-1.92,0-.49.14-.97.43-1.44.29-.47.94-.89,1.98-1.28-.38-.58-.57-1.1-.57-1.54,0-.66.24-1.2.72-1.61.48-.41,1.12-.62,1.92-.62s1.43.2,1.92.6c.49.4.74.89.74,1.49,0,.96-.61,1.72-1.82,2.28l.84,1.18c.22-.23.46-.58.7-1.07.13-.25.22-.43.28-.53l2,.41c-.11.3-.34.74-.71,1.32s-.74,1-1.11,1.27c.17.21.43.32.77.32.1,0,.29,0,.57-.03ZM265.67,66.01c-.51.19-.77.54-.77,1.03,0,.3.1.55.29.74s.46.28.79.28.64-.11.91-.32l-1.22-1.74ZM266.66,63.87c.55-.19.83-.49.83-.9,0-.17-.06-.32-.17-.44s-.26-.18-.44-.18-.32.05-.44.15c-.12.1-.18.25-.18.46,0,.3.13.6.39.91Z"/>
    <path class="cls-3" d="M280.51,66.23h-2.25l-.58,3.48h-2.52l1.45-8.66h2.52l-.53,3.19h2.25l.53-3.19h2.52l-1.45,8.66h-2.52l.58-3.48Z"/>
    <path class="cls-3" d="M292.72,61.05l-3.89,8.66h-2.51l-1.69-8.66h2.64l.96,5.59c.06-.17.33-.83.83-1.98l1.55-3.61h2.12Z"/>
    <path class="cls-3" d="M296.34,67.94h-2.32l-.81,1.77h-2.15l4.01-8.66h2.72l1.34,8.66h-2.56l-.24-1.77ZM296.18,66.16l-.34-2.51-1.14,2.51h1.49Z"/>
    <path class="cls-3" d="M305.16,66.36l2.32.3c-.27.95-.74,1.72-1.39,2.33s-1.49.91-2.49.91c-1.09,0-1.95-.37-2.59-1.11-.64-.74-.96-1.69-.96-2.85,0-1.34.4-2.52,1.19-3.55.79-1.03,1.88-1.54,3.26-1.54,1.01,0,1.82.31,2.45.93.62.62.94,1.44.96,2.45l-2.44.18c0-.53-.09-.93-.25-1.19-.16-.26-.42-.39-.79-.39-.64,0-1.08.48-1.32,1.43-.24.95-.35,1.7-.35,2.25,0,.89.35,1.33,1.04,1.33.34,0,.62-.11.83-.34.21-.23.39-.6.55-1.12Z"/>
    <path class="cls-3" d="M318.18,67.72l-.34,1.99h-6.39l1.45-8.66h6.23l-.32,1.9h-3.72l-.23,1.36h3.12l-.32,1.88h-3.12l-.25,1.54h3.87Z"/>
    <path class="cls-3" d="M320.02,63.31h2.23l-.17,1.04c.17-.43.46-.74.85-.94.39-.2.81-.29,1.24-.29.54,0,.99.14,1.33.43.34.29.51.67.51,1.14,0,.18-.02.4-.06.65l-.73,4.38h-2.44l.65-3.85c.04-.25.06-.41.06-.49,0-.36-.19-.54-.57-.54-.51,0-.82.34-.94,1.03l-.65,3.85h-2.38l1.07-6.41Z"/>
    <path class="cls-3" d="M334.02,61.48l-.15,1.6c-.25-.03-.44-.04-.57-.04-.47,0-.79.17-.96.51.66.39.98.9.98,1.53,0,.55-.21,1.03-.64,1.45-.43.42-1.21.63-2.35.63-.24,0-.44,0-.6-.03-.23-.03-.39-.04-.48-.04-.15,0-.28.05-.38.14-.1.09-.15.19-.15.31,0,.1.03.18.1.25.07.06.15.1.24.11s.47.03,1.14.05c.74.03,1.21.05,1.43.08.22.03.46.11.72.25.26.14.47.34.62.59.15.25.23.54.23.85,0,.6-.27,1.13-.8,1.58s-1.54.67-3.03.67c-2.25,0-3.37-.52-3.37-1.55,0-.54.38-.95,1.15-1.24-.41-.27-.62-.62-.62-1.02,0-.71.52-1.22,1.56-1.52-.59-.33-.89-.81-.89-1.43,0-.56.25-1.05.74-1.46.49-.41,1.32-.62,2.48-.62.36,0,.69.03,1,.1.18-1.2.84-1.8,1.97-1.8.17,0,.39.01.65.04ZM328.38,69.72c-.24.14-.36.29-.36.44,0,.32.53.48,1.58.48.52,0,.9-.03,1.13-.1s.35-.19.35-.38c0-.13-.05-.21-.16-.25-.11-.04-.35-.07-.72-.09-1.06-.05-1.67-.08-1.83-.11ZM330.23,66.02c.27,0,.48-.09.63-.29.15-.19.23-.41.23-.65,0-.47-.23-.7-.7-.7-.29,0-.5.1-.65.29-.15.2-.22.43-.22.69,0,.21.07.37.2.48s.3.17.51.17Z"/>
    <path class="cls-3" d="M337.58,63.31l-1.07,6.41h-2.49l1.07-6.41h2.49ZM337.99,60.85l-.32,1.88h-2.49l.32-1.88h2.49Z"/>
    <path class="cls-3" d="M339.04,63.31h2.23l-.17,1.04c.17-.43.46-.74.85-.94.39-.2.81-.29,1.24-.29.55,0,.99.14,1.33.43.34.29.51.67.51,1.14,0,.18-.02.4-.06.65l-.73,4.38h-2.44l.65-3.85c.04-.25.06-.41.06-.49,0-.36-.19-.54-.57-.54-.51,0-.82.34-.94,1.03l-.65,3.85h-2.38l1.07-6.41Z"/>
    <path class="cls-3" d="M352.75,66.98h-4.42c-.02.17-.03.3-.03.39,0,.28.09.5.27.66.18.16.41.24.68.24.52,0,.89-.27,1.1-.81l2.16.35c-.28.63-.73,1.14-1.35,1.53-.62.39-1.32.58-2.08.58-.96,0-1.73-.27-2.33-.82-.59-.54-.89-1.29-.89-2.22,0-1.02.35-1.9,1.05-2.62.7-.73,1.62-1.1,2.75-1.1.96,0,1.73.28,2.29.85s.85,1.32.85,2.26c0,.21-.02.45-.07.73ZM350.44,65.75c.02-.13.03-.23.03-.3,0-.23-.07-.43-.21-.6-.14-.17-.34-.25-.59-.25-.27,0-.52.1-.74.31-.22.21-.36.49-.41.85h1.92Z"/>
    <path class="cls-3" d="M360.48,66.98h-4.42c-.02.17-.03.3-.03.39,0,.28.09.5.27.66.18.16.41.24.68.24.52,0,.89-.27,1.1-.81l2.16.35c-.28.63-.73,1.14-1.35,1.53-.62.39-1.32.58-2.08.58-.96,0-1.73-.27-2.33-.82-.59-.54-.89-1.29-.89-2.22,0-1.02.35-1.9,1.05-2.62.7-.73,1.62-1.1,2.75-1.1.96,0,1.73.28,2.29.85s.85,1.32.85,2.26c0,.21-.02.45-.07.73ZM358.16,65.75c.02-.13.03-.23.03-.3,0-.23-.07-.43-.21-.6-.14-.17-.34-.25-.59-.25-.27,0-.52.1-.74.31-.22.21-.36.49-.41.85h1.92Z"/>
    <path class="cls-3" d="M362.21,63.31h2.14l-.26,1.55c.45-1.16,1.13-1.74,2.04-1.74.07,0,.17.01.3.03l-.29,2.29c-.22-.01-.37-.02-.44-.02-.53,0-.92.12-1.17.37-.25.25-.42.69-.53,1.32l-.44,2.62h-2.44l1.07-6.41Z"/>
    <path class="cls-3" d="M372.86,64.79l-1.89.41c-.14-.41-.54-.62-1.19-.62-.45,0-.68.13-.68.38,0,.22.22.37.65.45.89.15,1.51.32,1.88.5.36.18.64.41.82.69.18.28.28.6.28.96,0,.64-.27,1.19-.81,1.63-.54.44-1.36.66-2.46.66-.82,0-1.53-.16-2.14-.48-.61-.32-.99-.8-1.14-1.44l2.01-.29c.16.46.6.69,1.35.69.29,0,.5-.04.64-.12.14-.08.21-.18.21-.28s-.05-.18-.14-.23c-.09-.05-.33-.12-.71-.2-.75-.17-1.28-.32-1.6-.45-.32-.13-.59-.35-.81-.64-.22-.29-.33-.63-.33-1.02,0-.66.26-1.2.78-1.62s1.22-.63,2.11-.63c.81,0,1.5.16,2.07.47.57.31.93.7,1.09,1.18Z"/>
  </g>
</svg>