<?xml version="1.0" encoding="UTF-8"?>
<svg id="Layer_1" xmlns="http://www.w3.org/2000/svg" viewBox="0 0 434.82 83.81">
  <defs>
    <style>
      .cls-1, .cls-2 {
        fill: #892947;
      }

      .cls-1, .cls-3 {
        font-family: FranklinGothic-HeavyItalic, 'Franklin Gothic Heavy';
        font-size: 72px;
        font-style: italic;
        font-weight: 800;
      }

      .cls-4 {
        fill: #fff;
      }

      .cls-3, .cls-5 {
        fill: #103146;
      }
    </style>
  </defs>
  <text class="cls-3" transform="translate(0 60.01)"><tspan x="0" y="0">P</tspan></text>
  <text class="cls-3" transform="translate(42.42 60.01)"><tspan x="0" y="0">K</tspan></text>
  <g>
    <path class="cls-4" d="M112.41,26.94l12-18.71-15.99,3.81-13.43,23.1,6.53-1.21-9.62,16.55,7.7-1.43-11.07,19.03,28.47-25.41-9.16,1.95,12.06-19.33-7.49,1.65ZM100.54,49.51l1.07-1.84-2.21.41-5.48,1.02,8.55-14.71,1.07-1.84-2.21.41-4.32.8,12.14-20.88,4.98-1.18-13.81,20.17,7.24-1.38-10.49,16.93,8.45-1.2-12.26,15.8,7.28-12.52Z"/>
    <polygon class="cls-2" points="97.06 47.43 107.55 30.49 100.31 31.87 114.12 11.7 109.14 12.88 97 33.76 101.32 32.96 103.53 32.55 102.46 34.39 93.91 49.1 99.39 48.08 101.61 47.67 100.54 49.51 93.26 62.03 105.51 46.23 97.06 47.43"/>
  </g>
  <text class="cls-1" transform="translate(110.85 60.01)"><tspan x="0" y="0">Autocare </tspan></text>
  <g>
    <path class="cls-5" d="M118.26,68.16l-1.78,10.66h-3l.95-5.68c.1-.58.23-1.19.38-1.83.12-.52.21-.91.26-1.18-.06.16-.15.41-.27.73-.26.68-.49,1.27-.7,1.75l-2.76,6.2h-1.92l-.73-6.2c-.07-.55-.11-1.13-.14-1.75-.02-.37-.04-.66-.06-.86-.15,1.47-.31,2.75-.48,3.81l-.83,5h-2.42l1.78-10.66h4.29l.57,4.72c.05.39.09.66.13.82.07-.24.18-.51.32-.82l2.11-4.72h4.32Z"/>
    <path class="cls-5" d="M126.91,75.45h-5.44c-.03.21-.04.37-.04.48,0,.35.11.62.33.81.22.19.5.29.84.29.64,0,1.09-.33,1.36-1l2.66.43c-.34.77-.9,1.4-1.67,1.88-.77.48-1.62.72-2.56.72-1.18,0-2.13-.33-2.86-1-.73-.67-1.1-1.58-1.1-2.74,0-1.25.43-2.33,1.3-3.23.86-.9,1.99-1.35,3.39-1.35,1.18,0,2.12.35,2.82,1.04.7.7,1.05,1.62,1.05,2.78,0,.26-.03.56-.09.9ZM124.06,73.94c.03-.16.04-.29.04-.38,0-.28-.09-.53-.26-.73-.17-.21-.42-.31-.73-.31-.33,0-.64.13-.91.38-.27.25-.44.6-.5,1.04h2.36Z"/>
    <path class="cls-5" d="M132.94,75.76l2.38.59c-.43,1.02-.99,1.73-1.68,2.12-.69.39-1.41.59-2.15.59-1.09,0-1.98-.35-2.67-1.04-.69-.69-1.04-1.58-1.04-2.66,0-1.24.41-2.33,1.22-3.28.81-.95,1.89-1.42,3.24-1.42.97,0,1.8.29,2.48.88.68.59,1.02,1.34,1.02,2.26l-2.68.31c0-.85-.29-1.28-.87-1.28-.5,0-.85.35-1.05,1.05-.21.7-.31,1.31-.31,1.83,0,.77.29,1.16.88,1.16s.98-.37,1.23-1.11Z"/>
    <path class="cls-5" d="M140.78,68.16l-.62,3.73c.58-.79,1.35-1.19,2.32-1.19.56,0,1.07.15,1.53.46.46.31.69.84.69,1.61,0,.29-.03.64-.1,1.07l-.83,4.98h-3l.78-4.67c.07-.39.1-.62.1-.69,0-.42-.25-.63-.76-.63-.22,0-.4.05-.55.16-.15.11-.26.23-.34.37-.08.14-.15.41-.21.79l-.78,4.67h-3l1.78-10.66h3Z"/>
    <path class="cls-5" d="M153.5,78.82h-3.09c-.02-.15-.02-.27-.02-.37,0-.27.02-.58.06-.94-.62.99-1.48,1.49-2.59,1.49-.75,0-1.36-.22-1.82-.65-.46-.43-.7-.97-.7-1.62,0-.48.12-.93.38-1.33.25-.4.6-.73,1.06-.96s.93-.4,1.41-.47c.48-.08,1.42-.18,2.81-.31.07-.19.1-.34.1-.45,0-.43-.3-.65-.91-.65s-1.03.29-1.31.88l-2.57-.52c.65-1.46,2.08-2.2,4.3-2.2,1.12,0,2,.19,2.64.58s.96.96.96,1.71c0,.34-.19,1.54-.56,3.59-.14.77-.21,1.27-.21,1.52,0,.2.03.43.08.7ZM150.72,75.07c-1.43.11-2.15.57-2.15,1.38,0,.44.23.66.69.66.3,0,.59-.13.89-.4s.49-.81.57-1.64Z"/>
    <path class="cls-5" d="M156.23,70.93h2.75l-.21,1.28c.21-.53.56-.91,1.05-1.15s.99-.36,1.53-.36c.67,0,1.22.18,1.63.53.42.35.62.82.62,1.4,0,.22-.03.49-.08.8l-.9,5.39h-3l.8-4.74c.05-.3.08-.5.08-.6,0-.44-.23-.66-.7-.66-.63,0-1.01.42-1.16,1.27l-.8,4.74h-2.93l1.32-7.89Z"/>
    <path class="cls-5" d="M168.65,70.93l-1.32,7.89h-3.07l1.32-7.89h3.07ZM169.15,67.91l-.39,2.32h-3.07l.39-2.32h3.07Z"/>
    <path class="cls-5" d="M174.34,75.76l2.38.59c-.43,1.02-.99,1.73-1.68,2.12-.69.39-1.41.59-2.15.59-1.09,0-1.98-.35-2.67-1.04-.69-.69-1.04-1.58-1.04-2.66,0-1.24.41-2.33,1.22-3.28.81-.95,1.89-1.42,3.24-1.42.97,0,1.8.29,2.48.88.68.59,1.02,1.34,1.02,2.26l-2.68.31c0-.85-.29-1.28-.87-1.28-.5,0-.85.35-1.05,1.05-.21.7-.31,1.31-.31,1.83,0,.77.29,1.16.88,1.16s.98-.37,1.23-1.11Z"/>
    <path class="cls-5" d="M185.43,78.82h-3.09c-.02-.15-.02-.27-.02-.37,0-.27.02-.58.06-.94-.62.99-1.48,1.49-2.59,1.49-.75,0-1.36-.22-1.82-.65-.46-.43-.7-.97-.7-1.62,0-.48.12-.93.38-1.33.25-.4.6-.73,1.06-.96s.93-.4,1.41-.47c.48-.08,1.42-.18,2.81-.31.07-.19.1-.34.1-.45,0-.43-.3-.65-.91-.65s-1.03.29-1.31.88l-2.57-.52c.65-1.46,2.08-2.2,4.3-2.2,1.12,0,2,.19,2.64.58s.96.96.96,1.71c0,.34-.19,1.54-.56,3.59-.14.77-.21,1.27-.21,1.52,0,.2.03.43.08.7ZM182.65,75.07c-1.43.11-2.15.57-2.15,1.38,0,.44.23.66.69.66.3,0,.59-.13.89-.4s.49-.81.57-1.64Z"/>
    <path class="cls-5" d="M191.62,68.16l-1.78,10.66h-3l1.78-10.66h3Z"/>
    <path class="cls-5" d="M194.8,75.99l-.43,2.57-2.13,3h-1.25l1.71-2.74h-1.31l.47-2.83h2.94Z"/>
    <path class="cls-5" d="M208.26,76.37l-.41,2.45h-7.86l1.78-10.66h7.66l-.39,2.34h-4.57l-.28,1.67h3.84l-.39,2.31h-3.84l-.31,1.89h4.77Z"/>
    <path class="cls-5" d="M213.82,68.16l-1.78,10.66h-3l1.78-10.66h3Z"/>
    <path class="cls-5" d="M222.37,75.45h-5.44c-.03.21-.04.37-.04.48,0,.35.11.62.33.81.22.19.5.29.84.29.64,0,1.09-.33,1.36-1l2.66.43c-.34.77-.9,1.4-1.67,1.88-.77.48-1.62.72-2.56.72-1.18,0-2.13-.33-2.86-1-.73-.67-1.1-1.58-1.1-2.74,0-1.25.43-2.33,1.3-3.23.86-.9,1.99-1.35,3.39-1.35,1.18,0,2.12.35,2.82,1.04.7.7,1.05,1.62,1.05,2.78,0,.26-.03.56-.09.9ZM219.52,73.94c.03-.16.04-.29.04-.38,0-.28-.09-.53-.26-.73-.17-.21-.42-.31-.73-.31-.33,0-.64.13-.91.38-.27.25-.44.6-.5,1.04h2.36Z"/>
    <path class="cls-5" d="M228.4,75.76l2.38.59c-.43,1.02-.99,1.73-1.68,2.12-.69.39-1.41.59-2.15.59-1.09,0-1.98-.35-2.67-1.04-.69-.69-1.04-1.58-1.04-2.66,0-1.24.41-2.33,1.22-3.28.81-.95,1.89-1.42,3.24-1.42.97,0,1.8.29,2.48.88.68.59,1.02,1.34,1.02,2.26l-2.68.31c0-.85-.29-1.28-.87-1.28-.5,0-.85.35-1.05,1.05-.21.7-.31,1.31-.31,1.83,0,.77.29,1.16.88,1.16s.98-.37,1.23-1.11Z"/>
    <path class="cls-5" d="M237.31,70.93l-.34,2.02h-1.43l-.47,2.81c-.05.28-.07.45-.07.52,0,.39.25.58.74.58.21,0,.46-.03.74-.09l-.34,2.05c-.56.12-1.1.18-1.62.18-.64,0-1.12-.08-1.43-.24-.31-.16-.56-.39-.76-.69s-.29-.69-.29-1.17c0-.2.05-.58.14-1.14l.47-2.81h-1.08l.34-2.02h1.09l.44-2.34,2.86-.05-.4,2.39h1.43Z"/>
    <path class="cls-5" d="M238.49,70.93h2.63l-.32,1.9c.55-1.42,1.39-2.14,2.51-2.14.09,0,.21.01.37.04l-.35,2.81c-.27-.02-.45-.02-.54-.02-.65,0-1.13.15-1.43.46-.3.3-.52.84-.65,1.62l-.54,3.22h-3l1.32-7.89Z"/>
    <path class="cls-5" d="M247.82,70.93l-1.32,7.89h-3.07l1.32-7.89h3.07ZM248.32,67.91l-.39,2.32h-3.07l.39-2.32h3.07Z"/>
    <path class="cls-5" d="M253.51,75.76l2.38.59c-.43,1.02-.99,1.73-1.68,2.12-.69.39-1.41.59-2.15.59-1.09,0-1.98-.35-2.67-1.04-.69-.69-1.04-1.58-1.04-2.66,0-1.24.41-2.33,1.22-3.28.81-.95,1.89-1.42,3.24-1.42.97,0,1.8.29,2.48.88.68.59,1.02,1.34,1.02,2.26l-2.68.31c0-.85-.29-1.28-.87-1.28-.5,0-.85.35-1.05,1.05-.21.7-.31,1.31-.31,1.83,0,.77.29,1.16.88,1.16s.98-.37,1.23-1.11Z"/>
    <path class="cls-5" d="M264.6,78.82h-3.09c-.02-.15-.02-.27-.02-.37,0-.27.02-.58.06-.94-.62.99-1.48,1.49-2.59,1.49-.75,0-1.36-.22-1.82-.65-.46-.43-.7-.97-.7-1.62,0-.48.12-.93.38-1.33.25-.4.6-.73,1.06-.96s.93-.4,1.41-.47c.48-.08,1.42-.18,2.81-.31.07-.19.1-.34.1-.45,0-.43-.3-.65-.91-.65s-1.03.29-1.31.88l-2.57-.52c.65-1.46,2.08-2.2,4.3-2.2,1.12,0,2,.19,2.64.58s.96.96.96,1.71c0,.34-.19,1.54-.56,3.59-.14.77-.21,1.27-.21,1.52,0,.2.03.43.08.7ZM261.82,75.07c-1.43.11-2.15.57-2.15,1.38,0,.44.23.66.69.66.3,0,.59-.13.89-.4.3-.27.49-.81.57-1.64Z"/>
    <path class="cls-5" d="M270.79,68.16l-1.78,10.66h-3l1.78-10.66h3Z"/>
    <path class="cls-5" d="M273.97,75.99l-.43,2.57-2.13,3h-1.25l1.71-2.74h-1.31l.47-2.83h2.94Z"/>
    <path class="cls-5" d="M289.76,76.76l-.37,2.17c-.38.1-.72.15-1.02.15-.84,0-1.6-.32-2.26-.95-.78.65-1.75.97-2.91.97s-2.17-.3-2.93-.9c-.77-.6-1.15-1.39-1.15-2.37,0-.6.18-1.19.53-1.77s1.16-1.1,2.43-1.57c-.47-.72-.7-1.35-.7-1.9,0-.82.29-1.48.88-1.99.59-.51,1.38-.76,2.36-.76s1.75.25,2.36.73c.6.49.91,1.1.91,1.83,0,1.19-.75,2.12-2.25,2.8l1.04,1.46c.28-.28.56-.72.86-1.31.16-.31.27-.53.34-.65l2.46.51c-.13.38-.42.92-.88,1.62-.46.71-.91,1.23-1.37,1.56.21.26.53.39.95.39.12,0,.35-.01.7-.03ZM283.3,74.26c-.63.24-.95.66-.95,1.27,0,.38.12.68.36.91.24.23.56.35.97.35s.79-.13,1.12-.39l-1.51-2.14ZM284.52,71.62c.68-.23,1.02-.6,1.02-1.11,0-.21-.07-.39-.21-.54-.14-.15-.32-.22-.54-.22s-.39.06-.54.19-.22.31-.22.56c0,.37.16.74.48,1.12Z"/>
    <path class="cls-5" d="M301.24,74.53h-2.77l-.72,4.29h-3.1l1.78-10.66h3.1l-.66,3.92h2.77l.65-3.92h3.1l-1.78,10.66h-3.1l.72-4.29Z"/>
    <path class="cls-5" d="M316.12,68.16l-4.79,10.66h-3.09l-2.08-10.66h3.25l1.18,6.88c.07-.2.41-1.02,1.02-2.44l1.91-4.45h2.6Z"/>
    <path class="cls-5" d="M320.41,76.64h-2.86l-1,2.18h-2.64l4.94-10.66h3.35l1.66,10.66h-3.15l-.3-2.18ZM320.22,74.44l-.42-3.09-1.41,3.09h1.83Z"/>
    <path class="cls-5" d="M331.11,74.69l2.86.37c-.33,1.17-.91,2.12-1.71,2.87-.81.75-1.83,1.12-3.07,1.12-1.34,0-2.4-.45-3.19-1.36s-1.18-2.08-1.18-3.5c0-1.65.49-3.1,1.46-4.37.97-1.27,2.31-1.9,4.02-1.9,1.24,0,2.24.38,3.01,1.14.77.76,1.16,1.77,1.18,3.02l-3.01.22c-.01-.66-.11-1.15-.3-1.47-.19-.32-.52-.48-.98-.48-.79,0-1.33.59-1.62,1.76s-.43,2.09-.43,2.77c0,1.09.43,1.64,1.28,1.64.42,0,.76-.14,1.02-.42.26-.28.48-.74.67-1.38Z"/>
    <path class="cls-5" d="M346.81,76.37l-.41,2.45h-7.86l1.78-10.66h7.66l-.39,2.34h-4.58l-.28,1.67h3.84l-.39,2.31h-3.84l-.31,1.89h4.77Z"/>
    <path class="cls-5" d="M348.91,70.93h2.75l-.21,1.28c.21-.53.56-.91,1.05-1.15.48-.24.99-.36,1.53-.36.67,0,1.21.18,1.63.53.42.35.62.82.62,1.4,0,.22-.03.49-.08.8l-.9,5.39h-3l.8-4.74c.05-.3.08-.5.08-.6,0-.44-.23-.66-.7-.66-.63,0-1.01.42-1.16,1.27l-.8,4.74h-2.93l1.32-7.89Z"/>
    <path class="cls-5" d="M365.99,68.69l-.19,1.97c-.31-.04-.55-.05-.7-.05-.58,0-.97.21-1.18.63.81.48,1.21,1.11,1.21,1.88,0,.67-.26,1.27-.79,1.79s-1.49.78-2.89.78c-.3,0-.54-.01-.73-.03-.28-.03-.48-.05-.59-.05-.19,0-.35.06-.47.17-.12.11-.19.24-.19.38,0,.12.04.22.12.3.08.08.18.12.29.13.11.01.58.03,1.41.06.91.03,1.49.06,1.76.1.27.03.56.14.89.31.32.17.58.41.76.72.18.31.28.66.28,1.04,0,.74-.33,1.39-.98,1.94-.66.55-1.9.83-3.73.83-2.77,0-4.15-.64-4.15-1.91,0-.66.47-1.17,1.41-1.52-.51-.34-.76-.76-.76-1.26,0-.88.64-1.5,1.92-1.87-.73-.41-1.1-1-1.1-1.76,0-.69.3-1.29.91-1.8.6-.5,1.62-.76,3.05-.76.44,0,.85.04,1.23.12.22-1.47,1.03-2.21,2.42-2.21.21,0,.48.02.8.05ZM359.05,78.82c-.3.18-.44.36-.44.55,0,.4.65.59,1.95.59.64,0,1.1-.04,1.39-.12.29-.08.43-.24.43-.47,0-.16-.07-.26-.2-.31-.13-.05-.43-.08-.88-.11-1.31-.06-2.06-.1-2.25-.13ZM361.32,74.26c.33,0,.59-.12.78-.35s.28-.5.28-.8c0-.58-.29-.87-.86-.87-.35,0-.62.12-.8.36-.18.24-.28.52-.28.85,0,.25.08.45.25.59s.37.21.62.21Z"/>
    <path class="cls-5" d="M370.21,70.93l-1.32,7.89h-3.07l1.32-7.89h3.07ZM370.71,67.91l-.39,2.32h-3.07l.39-2.32h3.07Z"/>
    <path class="cls-5" d="M371.84,70.93h2.75l-.21,1.28c.21-.53.56-.91,1.05-1.15.48-.24.99-.36,1.53-.36.67,0,1.21.18,1.63.53.42.35.62.82.62,1.4,0,.22-.03.49-.08.8l-.9,5.39h-3l.8-4.74c.05-.3.08-.5.08-.6,0-.44-.23-.66-.7-.66-.63,0-1.01.42-1.16,1.27l-.8,4.74h-2.93l1.32-7.89Z"/>
    <path class="cls-5" d="M388.56,75.45h-5.44c-.03.21-.04.37-.04.48,0,.35.11.62.33.81.22.19.5.29.84.29.64,0,1.09-.33,1.36-1l2.66.43c-.34.77-.9,1.4-1.67,1.88-.77.48-1.62.72-2.56.72-1.18,0-2.13-.33-2.86-1-.73-.67-1.1-1.58-1.1-2.74,0-1.25.43-2.33,1.3-3.23.86-.9,1.99-1.35,3.39-1.35,1.18,0,2.12.35,2.82,1.04.7.7,1.05,1.62,1.05,2.78,0,.26-.03.56-.09.9ZM385.72,73.94c.03-.16.04-.29.04-.38,0-.28-.09-.53-.26-.73-.17-.21-.42-.31-.73-.31-.33,0-.64.13-.91.38-.27.25-.44.6-.5,1.04h2.36Z"/>
    <path class="cls-5" d="M397.91,75.45h-5.44c-.03.21-.04.37-.04.48,0,.35.11.62.33.81.22.19.5.29.84.29.64,0,1.09-.33,1.36-1l2.66.43c-.34.77-.9,1.4-1.67,1.88-.77.48-1.62.72-2.56.72-1.18,0-2.13-.33-2.86-1-.73-.67-1.1-1.58-1.1-2.74,0-1.25.43-2.33,1.3-3.23.86-.9,1.99-1.35,3.39-1.35,1.18,0,2.12.35,2.82,1.04.7.7,1.05,1.62,1.05,2.78,0,.26-.03.56-.09.9ZM395.06,73.94c.03-.16.04-.29.04-.38,0-.28-.09-.53-.26-.73-.17-.21-.42-.31-.73-.31-.33,0-.64.13-.91.38-.27.25-.44.6-.5,1.04h2.36Z"/>
    <path class="cls-5" d="M399.88,70.93h2.63l-.32,1.9c.55-1.42,1.39-2.14,2.51-2.14.09,0,.21.01.37.04l-.35,2.81c-.27-.02-.45-.02-.54-.02-.65,0-1.13.15-1.43.46-.3.3-.52.84-.65,1.62l-.54,3.22h-3l1.32-7.89Z"/>
    <path class="cls-5" d="M412.83,72.76l-2.32.51c-.18-.51-.66-.77-1.46-.77-.56,0-.84.16-.84.47,0,.28.27.46.8.55,1.09.19,1.86.39,2.31.62.45.22.79.51,1.01.86.23.35.34.74.34,1.18,0,.79-.33,1.46-1,2-.66.54-1.67.82-3.03.82-1.01,0-1.88-.2-2.63-.59-.75-.39-1.21-.98-1.4-1.77l2.47-.36c.19.57.74.85,1.66.85.35,0,.62-.05.79-.15s.26-.22.26-.35-.06-.22-.17-.28c-.12-.06-.4-.14-.87-.25-.92-.21-1.58-.4-1.97-.56s-.72-.43-1-.79c-.27-.36-.41-.78-.41-1.25,0-.81.32-1.47.96-1.99s1.51-.78,2.6-.78c.99,0,1.84.19,2.55.57s1.15.87,1.34,1.45Z"/>
  </g>
</svg>